<svg width="15" height="17" viewBox="0 0 15 17" fill="none" xmlns="http://www.w3.org/2000/svg">
<path d="M3.28604 6.56969C4.09099 6.56969 4.74401 5.91455 4.74401 5.11172C4.74401 4.87497 4.68606 4.65234 4.58641 4.45517L6.64022 2.65869C6.87556 2.81982 7.15966 2.91594 7.46356 2.91594C7.76745 2.91594 8.05719 2.81982 8.29395 2.65516L10.3801 4.46225C10.2826 4.6573 10.2247 4.87851 10.2247 5.11385C10.2247 5.91881 10.8798 6.57182 11.6826 6.57182C12.4862 6.57182 13.1406 5.91669 13.1406 5.11385C13.1406 4.31031 12.4855 3.65588 11.6826 3.65588C11.3752 3.65588 11.089 3.752 10.8522 3.91666L8.76605 2.10957C8.86357 1.91452 8.92153 1.69331 8.92153 1.45797C8.92153 0.654427 8.26639 0 7.46356 0C6.66002 0 6.00559 0.655132 6.00559 1.45797C6.00559 1.69472 6.06354 1.91734 6.16319 2.11451L4.10937 3.911C3.87403 3.74987 3.58993 3.65375 3.28463 3.65375C2.48109 3.65375 1.82666 4.30888 1.82666 5.11172C1.82666 5.91526 2.48179 6.56969 3.28463 6.56969H3.28604ZM12.4155 5.11031C12.4155 5.51526 12.0862 5.84459 11.6812 5.84459C11.2762 5.84459 10.9469 5.51526 10.9469 5.11031C10.9469 4.70535 11.2762 4.37602 11.6812 4.37602C12.0862 4.37602 12.4155 4.70535 12.4155 5.11031ZM7.46133 0.720807C7.86629 0.720807 8.19562 1.05014 8.19562 1.45509C8.19562 1.86005 7.86629 2.18938 7.46133 2.18938C7.05638 2.18938 6.72705 1.86005 6.72705 1.45509C6.72705 1.05014 7.05638 0.720807 7.46133 0.720807ZM3.28604 4.37523C3.69099 4.37523 4.02032 4.70456 4.02032 5.10951C4.02032 5.51447 3.69099 5.8438 3.28604 5.8438C2.88108 5.8438 2.55175 5.51447 2.55175 5.10951C2.55175 4.70456 2.88108 4.37523 3.28604 4.37523Z" fill="white"/>
<path d="M14.5174 12.1294C14.3308 11.8616 14.0128 11.6828 13.687 11.663C13.5732 11.6559 13.4629 11.663 13.3576 11.6828V7.79083C13.3576 7.59153 13.1951 7.42899 12.9958 7.42899H10.5208C10.3215 7.42899 10.159 7.59153 10.159 7.79083V12.8092C9.80065 12.8778 9.44093 12.9251 9.07556 12.9484V6.06277C9.07556 5.86347 8.91301 5.70093 8.71372 5.70093H6.23872C6.03942 5.70093 5.87688 5.86347 5.87688 6.06277V9.9504C5.51292 10.1129 5.15108 10.2811 4.79347 10.4571V8.85074C4.79347 8.65144 4.63092 8.4889 4.43163 8.4889H1.95663C1.75733 8.4889 1.59479 8.65145 1.59479 8.85074V12.1547C1.22942 12.359 0.865463 12.5639 0.505738 12.7681C0.391955 12.8332 0.321289 12.9547 0.321289 13.0848L0.337543 16.5116C0.337543 16.6254 0.393374 16.7342 0.485955 16.8013C0.578535 16.8699 0.697976 16.8897 0.806094 16.8558C1.93332 16.5102 3.18357 16.6621 4.50791 16.8211C5.23513 16.9095 5.98213 16.9999 6.71352 16.9999C6.95946 16.9999 7.20186 16.9893 7.44285 16.9653C10.1277 16.6974 12.3785 14.8825 14.1878 13.4247C14.334 13.3052 14.5567 13.1264 14.6436 12.8459C14.7178 12.6056 14.6726 12.3505 14.5185 12.1278L14.5174 12.1294ZM10.8827 8.15479H12.6339V11.952C12.6028 11.9661 12.5724 11.9831 12.5413 11.9972L12.4693 12.0332C11.9611 12.2884 11.429 12.4912 10.8827 12.6431V8.15268L10.8827 8.15479ZM8.35195 12.9655C8.23251 12.9634 8.11308 12.9634 7.99363 12.9563C7.78373 12.9436 7.57596 12.9252 7.36606 12.9054C7.24662 12.8948 7.12578 12.8835 7.0021 12.8729C7.37666 12.6326 7.73991 12.3754 8.09327 12.1061C8.18585 12.0354 8.27207 11.9633 8.35052 11.8927V12.9655L8.35195 12.9655ZM8.35195 6.42682V9.60216C8.15831 9.49898 7.93569 9.43537 7.69893 9.42336C7.31165 9.40145 6.94627 9.50675 6.60069 9.64032V6.4268L8.35195 6.42682ZM2.32005 9.21481H4.07131V10.8212C3.47979 11.1237 2.89744 11.4382 2.32005 11.7548V9.21481ZM13.7322 12.8658C11.9993 14.2623 9.8402 16.003 7.371 16.2488C6.49324 16.3358 5.57239 16.2234 4.59567 16.1061C3.8628 16.0177 3.11579 15.9273 2.38301 15.9273C1.93635 15.9273 1.49253 15.9619 1.06214 16.0488L1.04942 13.2968C2.83531 12.2876 4.6805 11.2523 6.59302 10.4276C6.9605 10.2686 7.31882 10.1273 7.66229 10.1456C7.93015 10.1598 8.23968 10.3209 8.2934 10.5668C8.36973 10.9032 7.98739 11.2778 7.65453 11.5329C6.97255 12.0559 6.2432 12.5245 5.48348 12.9294C5.328 13.0128 5.25521 13.1951 5.30963 13.3633C5.36546 13.5301 5.53225 13.6347 5.70751 13.6079C5.81988 13.5895 5.93366 13.5789 6.04603 13.5732C6.45522 13.5513 6.86582 13.5895 7.29976 13.6291C7.51672 13.6488 7.73368 13.6686 7.95277 13.6814C9.62276 13.7789 11.2962 13.4333 12.7924 12.6828L12.8687 12.6446C13.1436 12.5054 13.4023 12.3732 13.6447 12.3874C13.7479 12.393 13.8652 12.4594 13.9232 12.5449C13.9486 12.581 13.9578 12.6135 13.95 12.6389C13.9281 12.7096 13.8143 12.8015 13.7331 12.8686L13.7322 12.8658Z" fill="white"/>
</svg>
