<svg width="37" height="35" viewBox="0 0 37 35" fill="none" xmlns="http://www.w3.org/2000/svg">
<path d="M25.5213 23.0811H23.9455V21.1361C24.7575 20.927 25.3617 20.1951 25.3617 19.3187V17.8719C25.3617 16.834 24.5171 15.9894 23.4786 15.9894C22.4401 15.9894 21.5955 16.834 21.5955 17.8719V19.3187C21.5955 20.1864 22.1883 20.9113 22.988 21.1288V23.0811H20.4467V13.3633C20.4467 11.8099 19.6008 10.9541 18.0643 10.9541H14.0899C12.5484 10.9541 11.6994 11.8099 11.6994 13.3633L11.7018 23.0811H11.4787C11.2144 23.0811 11 23.2956 11 23.5599C11 23.8242 11.2144 24.0386 11.4787 24.0386H23.4297C23.4426 24.0396 23.4536 24.0461 23.4668 24.0461C23.4799 24.0461 23.4909 24.0396 23.5038 24.0386H25.5213C25.7856 24.0386 26 23.8242 26 23.5599C26 23.2956 25.7856 23.0811 25.5213 23.0811ZM19.4892 23.0811H16.5851V21.1662C16.5851 20.9019 16.3707 20.6875 16.1064 20.6875C15.8421 20.6875 15.6277 20.9019 15.6277 21.1662V23.0811H12.6592L12.6568 13.3633C12.6568 12.346 13.0857 11.9115 14.0899 11.9115H18.0643C19.0629 11.9115 19.4892 12.346 19.4892 13.3633V23.0811ZM23.4786 20.2443C22.9681 20.2443 22.5529 19.8292 22.5529 19.3187V17.8719C22.5529 17.362 22.9681 16.9469 23.4786 16.9469C23.9891 16.9469 24.4043 17.362 24.4043 17.8719V19.3187C24.4043 19.8292 23.9891 20.2443 23.4786 20.2443ZM18.1809 14.7839C18.1809 15.0482 17.9664 15.2626 17.7021 15.2626H14.5424C14.2781 15.2626 14.0637 15.0482 14.0637 14.7839C14.0637 14.5196 14.2781 14.3052 14.5424 14.3052H17.7021C17.9664 14.3052 18.1809 14.5196 18.1809 14.7839ZM18.1809 17.1769C18.1809 17.4412 17.9664 17.6556 17.7021 17.6556H14.5424C14.2781 17.6556 14.0637 17.4412 14.0637 17.1769C14.0637 16.9126 14.2781 16.6982 14.5424 16.6982H17.7021C17.9664 16.6982 18.1809 16.9126 18.1809 17.1769Z" fill="black"/>
</svg>
