<svg width="13" height="14" viewBox="0 0 13 14" fill="none" xmlns="http://www.w3.org/2000/svg">
<path d="M6.4 0.600098C2.86769 0.600098 0 3.46778 0 7.0001C0 10.5324 2.86769 13.4001 6.4 13.4001C9.93231 13.4001 12.8 10.5324 12.8 7.0001C12.8 3.46778 9.93231 0.600098 6.4 0.600098ZM8.68488 10.2406C6.72405 10.6621 5.03931 8.97668 5.03931 8.97668C3.14313 7.32418 3.11089 5.59067 3.11089 5.59067C3.01405 4.08371 4.0343 3.75962 4.50456 3.69514C4.65013 3.67868 4.77988 3.74387 4.86089 3.87362L5.62228 5.16983C5.76785 5.41287 5.70329 5.70464 5.47671 5.86667L5.21721 6.06097C5.03872 6.20654 4.97417 6.44957 5.08746 6.66033C5.59 7.64894 6.3672 8.18311 6.82097 8.42608C7.03173 8.53937 7.30705 8.47482 7.4368 8.28051L7.59882 8.05394C7.76085 7.82736 8.06844 7.74635 8.31147 7.89191L9.46211 8.52355C9.54313 8.57229 9.59186 8.63684 9.62414 8.71785C10.0134 9.78685 8.68488 10.2406 8.68488 10.2406Z" fill="#B2B2B2"/>
</svg>
