<svg width="37" height="35" viewBox="0 0 37 35" fill="none" xmlns="http://www.w3.org/2000/svg">
<path d="M18.5 10C18.653 10 18.8 10.0608 18.9082 10.1689C19.0163 10.2771 19.0771 10.4242 19.0771 10.5771V11.7598C20.4004 11.8945 21.6366 12.4823 22.5771 13.4229C23.5177 14.3634 24.1055 15.5996 24.2402 16.9229H25.4229C25.5758 16.9229 25.7229 16.9837 25.8311 17.0918C25.9392 17.2 26 17.347 26 17.5C26 17.653 25.9392 17.8 25.8311 17.9082C25.7229 18.0163 25.5758 18.0771 25.4229 18.0771H24.2402C24.1055 19.4004 23.5177 20.6366 22.5771 21.5771C21.6366 22.5177 20.4004 23.1055 19.0771 23.2402V24.4229C19.0771 24.5758 19.0163 24.7229 18.9082 24.8311C18.8 24.9392 18.653 25 18.5 25C18.347 25 18.2 24.9392 18.0918 24.8311C17.9837 24.7229 17.9229 24.5758 17.9229 24.4229V23.2402C16.5996 23.1055 15.3634 22.5177 14.4229 21.5771C13.4823 20.6366 12.8945 19.4004 12.7598 18.0771H11.5771C11.4242 18.0771 11.2771 18.0163 11.1689 17.9082C11.0608 17.8 11 17.653 11 17.5C11 17.347 11.0608 17.2 11.1689 17.0918C11.2771 16.9837 11.4242 16.9229 11.5771 16.9229H12.7598C12.8945 15.5996 13.4823 14.3634 14.4229 13.4229C15.3634 12.4823 16.5996 11.8945 17.9229 11.7598V10.5771C17.9229 10.4242 17.9837 10.2771 18.0918 10.1689C18.2 10.0608 18.347 10 18.5 10ZM19.0684 12.9229C19.0591 13.0675 18.9953 13.2036 18.8896 13.3027C18.784 13.4018 18.6448 13.457 18.5 13.457C18.3552 13.457 18.216 13.4018 18.1104 13.3027C18.0047 13.2036 17.9409 13.0675 17.9316 12.9229C16.9134 13.0509 15.9659 13.5145 15.2402 14.2402C14.5145 14.9659 14.0509 15.9134 13.9229 16.9316C14.0675 16.9409 14.2036 17.0047 14.3027 17.1104C14.4018 17.216 14.457 17.3552 14.457 17.5C14.457 17.6448 14.4018 17.784 14.3027 17.8896C14.2036 17.9953 14.0675 18.0591 13.9229 18.0684C14.0509 19.0866 14.5145 20.0341 15.2402 20.7598C15.9659 21.4855 16.9134 21.9491 17.9316 22.0771C17.9409 21.9325 18.0047 21.7964 18.1104 21.6973C18.216 21.5982 18.3552 21.543 18.5 21.543C18.6448 21.543 18.784 21.5983 18.8896 21.6973C18.9953 21.7964 19.0591 21.9325 19.0684 22.0771C20.0866 21.9491 21.0341 21.4855 21.7598 20.7598C22.4855 20.0341 22.9491 19.0866 23.0771 18.0684C22.9325 18.0591 22.7964 17.9953 22.6973 17.8896C22.5983 17.784 22.543 17.6448 22.543 17.5C22.543 17.3552 22.5982 17.216 22.6973 17.1104C22.7964 17.0047 22.9325 16.9409 23.0771 16.9316C22.9491 15.9134 22.4855 14.9659 21.7598 14.2402C21.0341 13.5145 20.0866 13.0509 19.0684 12.9229ZM18.5 14.6152C19.2648 14.6162 19.9983 14.9211 20.5391 15.4619C21.0796 16.0026 21.3838 16.7354 21.3848 17.5C21.3848 18.0705 21.2154 18.6282 20.8984 19.1025C20.5816 19.5768 20.1314 19.9467 19.6045 20.165C19.0774 20.3834 18.497 20.4404 17.9375 20.3291C17.3779 20.2178 16.8634 19.9435 16.46 19.54C16.0566 19.1366 15.7822 18.622 15.6709 18.0625C15.5597 17.5032 15.6168 16.9234 15.835 16.3965C16.0533 15.8694 16.4231 15.4185 16.8975 15.1016C17.3718 14.7846 17.9295 14.6153 18.5 14.6152ZM19.1621 15.9014C18.8459 15.7705 18.4978 15.736 18.1621 15.8027C17.8265 15.8696 17.5183 16.0344 17.2764 16.2764C17.0344 16.5183 16.8696 16.8265 16.8027 17.1621C16.736 17.4978 16.7705 17.8459 16.9014 18.1621C17.0324 18.4784 17.2544 18.7493 17.5391 18.9395C17.8236 19.1294 18.1579 19.2304 18.5 19.2305C18.959 19.2305 19.3991 19.0482 19.7236 18.7236C20.0482 18.3991 20.2305 17.959 20.2305 17.5C20.2304 17.1579 20.1294 16.8236 19.9395 16.5391C19.7493 16.2544 19.4784 16.0324 19.1621 15.9014Z" fill="black"/>
</svg>
