<svg width="21" height="18" viewBox="0 0 21 18" fill="none" xmlns="http://www.w3.org/2000/svg">
<path d="M20.0264 1.38251V10.9854H0.00219727V1.38251C0.00219727 0.61961 0.620754 0 1.38156 0H18.644C19.4069 0 20.0264 0.618557 20.0264 1.38251Z" fill="white"/>
<path d="M20.0275 11.7788V12.3858C20.0275 13.1487 19.4068 13.7672 18.6439 13.7672H11.6766V15.8684H13.2677C13.449 15.8684 13.5912 16.0138 13.5912 16.1919V16.8768C13.5912 17.0549 13.4479 17.2003 13.2677 17.2003H6.76089C6.57964 17.2003 6.43739 17.0549 6.43739 16.8768V16.1919C6.43739 16.0138 6.5807 15.8684 6.76089 15.8684H8.35203V13.7672H1.38146C0.620661 13.7672 0 13.1497 0 12.3858V11.7788H20.0275Z" fill="white"/>
</svg>
