<svg width="13" height="14" viewBox="0 0 13 14" fill="none" xmlns="http://www.w3.org/2000/svg">
<path d="M6.5059 0.500035C8.22647 0.505739 9.87521 1.19163 11.0918 2.40824C12.3083 3.62475 12.9942 5.27285 13 6.9932C13.0057 8.71373 12.3306 10.3672 11.1221 11.5918C10.5185 12.1986 9.8005 12.6793 9.00981 13.0069C8.219 13.3345 7.37066 13.5023 6.51469 13.5C5.22633 13.4999 3.96682 13.1181 2.89555 12.4024C1.82409 11.6864 0.989274 10.6681 0.496136 9.47757C0.0030948 8.28718 -0.126252 6.97761 0.125043 5.7139C0.376426 4.45008 0.997104 3.28917 1.90825 2.37796C3.13285 1.16952 4.78544 0.494406 6.5059 0.500035ZM6.51469 1.21195C5.37222 1.21115 4.25486 1.54921 3.30473 2.18363C2.35452 2.81813 1.61389 3.72074 1.1768 4.7764C0.739744 5.83207 0.626048 6.99383 0.849652 8.11429C1.07326 9.23478 1.62483 10.2633 2.43364 11.0703C3.51678 12.1529 4.98526 12.7612 6.51664 12.7608C8.04805 12.7604 9.51708 12.1515 10.5997 11.0684C11.682 9.98532 12.2895 8.51656 12.2891 6.98539C12.2887 5.45401 11.6799 3.98493 10.5967 2.90238C10.0619 2.36505 9.42604 1.9386 8.72563 1.64847C8.02501 1.35828 7.27303 1.21009 6.51469 1.21195ZM9.84379 4.1807L7.05668 6.96683L9.84379 9.75394L9.31743 10.2793L6.53129 7.49222L3.74516 10.2793L3.21977 9.75394L6.0059 6.96683L3.21977 4.1807L3.74516 3.65531L6.53129 6.44144L9.31743 3.65531L9.84379 4.1807Z" fill="#A4A4A4"/>
</svg>
