<svg width="37" height="35" viewBox="0 0 37 35" fill="none" xmlns="http://www.w3.org/2000/svg">
<path d="M23.3227 15.4542C23.4007 15.0674 23.4453 14.7148 23.4453 14.4352C23.4453 12.541 21.8253 11 19.834 11C17.8427 11 16.2227 12.541 16.2227 14.4352C16.2227 14.711 16.266 15.0585 16.342 15.439H13.8333C12.822 15.439 12 16.2209 12 17.1829V22.2561C12 23.2181 12.822 24 13.8333 24H23.1667C24.178 24 25 23.2181 25 22.2561V17.1829C25 16.2717 24.26 15.5303 23.3227 15.4542ZM19.834 11.9512C21.274 11.9512 22.4453 13.0654 22.4453 14.4352C22.4453 16.1068 21.062 19.2439 19.834 19.2439C18.606 19.2439 17.2227 16.1068 17.2227 14.4352C17.2227 13.0654 18.394 11.9512 19.834 11.9512ZM16.334 16.3902H16.588C16.9047 17.403 17.4173 18.4905 18.082 19.2439H16.334V16.3902ZM15.334 23.0488H13.834C13.3747 23.0488 13.0007 22.693 13.0007 22.2561V17.1829C13.0007 16.746 13.3747 16.3902 13.834 16.3902H15.334V23.0488ZM19.334 23.0488H16.334V20.1951H19.334V23.0488ZM24.0007 22.2561C24.0007 22.693 23.6267 23.0488 23.1673 23.0488H20.334V20.1951H24.0007V22.2561ZM24.0007 19.2439H21.586C22.2507 18.4905 22.7633 17.403 23.08 16.3902H23.1673C23.6267 16.3902 24.0007 16.746 24.0007 17.1829V19.2439ZM18.7227 14.4352C18.7227 13.8518 19.22 13.378 19.834 13.378C20.448 13.378 20.9453 13.8511 20.9453 14.4352C20.9453 15.0192 20.448 15.4923 19.834 15.4923C19.22 15.4923 18.7227 15.0192 18.7227 14.4352Z" fill="black"/>
</svg>
