<svg width="17" height="15" viewBox="0 0 17 15" fill="none" xmlns="http://www.w3.org/2000/svg">
<path d="M15.7676 13.7537C15.8106 13.7107 15.832 13.6892 15.875 13.6462C16.004 13.5388 16.047 13.3884 16.047 13.2594C16.047 13.1305 16.004 13.0015 15.875 12.8726C15.832 12.8296 15.8106 12.8081 15.7676 12.7651C16.1329 12.9585 16.1329 13.5818 15.7676 13.7537Z" fill="black"/>
<path d="M5.30197 11.0243C5.72924 11.0243 6.07562 10.678 6.07562 10.2507C6.07562 9.82342 5.72924 9.47705 5.30197 9.47705C4.87469 9.47705 4.52832 9.82342 4.52832 10.2507C4.52832 10.678 4.87469 11.0243 5.30197 11.0243Z" fill="black"/>
<path d="M9.02016 7.43558C9.30501 7.43558 9.53592 7.20467 9.53592 6.91982C9.53592 6.63497 9.30501 6.40405 9.02016 6.40405C8.73531 6.40405 8.50439 6.63497 8.50439 6.91982C8.50439 7.20467 8.73531 7.43558 9.02016 7.43558Z" fill="black"/>
<path d="M5.79662 7.77928C6.27137 7.77928 6.65623 7.39442 6.65623 6.91967C6.65623 6.44492 6.27137 6.06006 5.79662 6.06006C5.32187 6.06006 4.93701 6.44492 4.93701 6.91967C4.93701 7.39442 5.32187 7.77928 5.79662 7.77928Z" fill="black"/>
<path d="M12.6306 7.84372C13.0935 7.84372 13.4687 7.46848 13.4687 7.0056C13.4687 6.54272 13.0935 6.16748 12.6306 6.16748C12.1677 6.16748 11.7925 6.54272 11.7925 7.0056C11.7925 7.46848 12.1677 7.84372 12.6306 7.84372Z" fill="black"/>
<path d="M9.01991 11.4758C9.7795 11.4758 10.3953 10.8601 10.3953 10.1005C10.3953 9.34087 9.7795 8.7251 9.01991 8.7251C8.26031 8.7251 7.64453 9.34087 7.64453 10.1005C7.64453 10.8601 8.26031 11.4758 9.01991 11.4758Z" fill="black"/>
<path d="M12.6305 10.7879C12.9272 10.7879 13.1678 10.5474 13.1678 10.2506C13.1678 9.95392 12.9272 9.71338 12.6305 9.71338C12.3338 9.71338 12.0933 9.95392 12.0933 10.2506C12.0933 10.5474 12.3338 10.7879 12.6305 10.7879Z" fill="black"/>
<path d="M5.55978 4.4699C5.98705 4.4699 6.33343 4.12353 6.33343 3.69626C6.33343 3.26898 5.98705 2.92261 5.55978 2.92261C5.13251 2.92261 4.78613 3.26898 4.78613 3.69626C4.78613 4.12353 5.13251 4.4699 5.55978 4.4699Z" fill="black"/>
<path d="M9.27812 4.62021C9.87156 4.62021 10.3526 4.13914 10.3526 3.5457C10.3526 2.95227 9.87156 2.47119 9.27812 2.47119C8.68469 2.47119 8.20361 2.95227 8.20361 3.5457C8.20361 4.13914 8.68469 4.62021 9.27812 4.62021Z" fill="black"/>
<path d="M12.8883 4.23369C13.185 4.23369 13.4256 3.99315 13.4256 3.69644C13.4256 3.39972 13.185 3.15918 12.8883 3.15918C12.5916 3.15918 12.3511 3.39972 12.3511 3.69644C12.3511 3.99315 12.5916 4.23369 12.8883 4.23369Z" fill="black"/>
<path d="M2.87417 0.0644705C2.74523 0.0214901 2.61629 0.0214901 2.48735 0.0644705C2.42288 0.0859607 2.37989 0.107451 2.33691 0.150431C2.44437 0.0429804 2.57331 0 2.70225 0C2.76672 0.0214902 2.83119 0.0214901 2.87417 0.0644705Z" fill="black"/>
<path d="M3.04556 0.150427C3.00258 0.107447 2.93811 0.0859565 2.89513 0.0644662C2.89513 0.0644662 2.89513 0.0644662 2.87364 0.0644662C2.7447 0.0214858 2.61576 0.0214858 2.48682 0.0644662C2.55129 0.0214858 2.61576 0.0214858 2.68023 0.0214858C2.80917 -4.39025e-06 2.93811 0.0429761 3.04556 0.150427Z" fill="black"/>
<path d="M16.0258 13.2809C16.0258 13.4099 15.9828 13.5388 15.8539 13.6678C15.8109 13.7107 15.7894 13.7322 15.7464 13.7752C15.3811 14.1406 15.0158 14.5059 14.6289 14.8497C14.1347 15.3225 13.3825 14.5704 13.8768 14.0976C13.9627 14.0116 14.0702 13.9256 14.1561 13.8182H2.80931C2.76633 13.8182 2.70186 13.8182 2.65888 13.7967C2.401 13.7752 2.14311 13.6033 2.14311 13.2809V1.89112C2.05715 1.97709 1.97119 2.08454 1.86374 2.1705C1.39096 2.66477 0.617309 1.91262 1.11158 1.41834C1.49841 1.03152 1.88523 0.623202 2.25057 0.236378C2.27206 0.214888 2.27206 0.214888 2.29355 0.193397L2.31504 0.171907C2.35802 0.128927 2.42249 0.107436 2.46547 0.0859463C2.59441 0.0429658 2.72335 0.0429658 2.85229 0.0859463C2.85229 0.0859463 2.85229 0.0859463 2.87378 0.0859463C2.91676 0.107436 2.98123 0.128927 3.02421 0.171907C3.02421 0.171907 3.0457 0.171907 3.0457 0.193397C3.06719 0.214888 3.06719 0.214888 3.08868 0.236378C3.47551 0.623202 3.86233 1.01003 4.22767 1.41834C4.72194 1.91262 3.94829 2.66477 3.47551 2.1705C3.38955 2.08454 3.30359 1.97709 3.19614 1.89112V12.7652H14.1347L13.8553 12.4858C13.361 12.013 14.1132 11.2394 14.6074 11.7336C14.9728 12.099 15.3381 12.4643 15.7249 12.8082C15.7679 12.8511 15.7894 12.8726 15.8324 12.9156C15.9828 13.0016 16.0473 13.152 16.0258 13.2809Z" fill="black"/>
</svg>
