<svg width="13" height="13" viewBox="0 0 13 13" fill="none" xmlns="http://www.w3.org/2000/svg">
<path d="M7.11799 6.25767L5.56681 3.56733C5.5241 3.49335 5.4626 3.43198 5.38854 3.38942C5.31449 3.34685 5.2305 3.32462 5.14508 3.32495H2.03786C1.95244 3.32462 1.86845 3.34685 1.79439 3.38942C1.72034 3.43198 1.65884 3.49335 1.61613 3.56733L0.0649436 6.25767C0.0223983 6.33136 0 6.41495 0 6.50004C0 6.58513 0.0223983 6.66872 0.0649436 6.74241L1.61613 9.43275C1.65884 9.50673 1.72034 9.5681 1.79439 9.61066C1.86845 9.65323 1.95244 9.67546 2.03786 9.67512H5.14508C5.2305 9.67546 5.31449 9.65323 5.38854 9.61066C5.4626 9.5681 5.5241 9.50673 5.56681 9.43275L7.11799 6.74241C7.16054 6.66872 7.18294 6.58513 7.18294 6.50004C7.18294 6.41495 7.16054 6.33136 7.11799 6.25767ZM4.85908 8.6814H2.31901L1.04898 6.50004L2.31901 4.29929H4.86393L6.1485 6.50004L4.85908 8.6814Z" fill="white"/>
<path d="M11.3788 6.90229C11.3361 6.82831 11.2746 6.76694 11.2006 6.72438C11.1265 6.68181 11.0425 6.65958 10.9571 6.65992H7.84987C7.76445 6.65958 7.68046 6.68181 7.60641 6.72438C7.53235 6.76694 7.47085 6.82831 7.42814 6.90229L5.87696 9.59263C5.83441 9.66632 5.81201 9.74991 5.81201 9.835C5.81201 9.92009 5.83441 10.0037 5.87696 10.0774L7.42814 12.7677C7.47085 12.8417 7.53235 12.9031 7.60641 12.9456C7.68046 12.9882 7.76445 13.0104 7.84987 13.0101H10.9571C11.0425 13.0104 11.1265 12.9882 11.2006 12.9456C11.2746 12.9031 11.3361 12.8417 11.3788 12.7677L12.9349 10.0822C12.9774 10.0085 12.9998 9.92494 12.9998 9.83985C12.9998 9.75476 12.9774 9.67117 12.9349 9.59747L11.3788 6.90229ZM10.6759 12.0406H8.13102L6.86099 9.83985L8.13102 7.6391H10.6759L11.9654 9.835L10.6759 12.0406Z" fill="white"/>
<path d="M7.42326 6.09779C7.46597 6.17176 7.52746 6.23314 7.60152 6.2757C7.67558 6.31826 7.75957 6.3405 7.84499 6.34016H10.9522C11.0376 6.3405 11.1216 6.31826 11.1957 6.2757C11.2697 6.23314 11.3312 6.17176 11.3739 6.09779L12.9348 3.40745C12.9774 3.33376 12.9998 3.25017 12.9998 3.16508C12.9998 3.07999 12.9774 2.9964 12.9348 2.92271L11.3836 0.232367C11.3409 0.158393 11.2794 0.0970169 11.2054 0.0544547C11.1313 0.0118924 11.0473 -0.0103451 10.9619 -0.0100059H7.84983C7.76442 -0.0103451 7.68043 0.0118924 7.60637 0.0544547C7.53231 0.0970169 7.47081 0.158393 7.42811 0.232367L5.87207 2.91786C5.82953 2.99155 5.80713 3.07514 5.80713 3.16023C5.80713 3.24532 5.82953 3.32891 5.87207 3.4026L7.42326 6.09779ZM8.13099 0.959486H10.6759L11.9653 3.16508L10.6953 5.36582H8.13099L6.86095 3.16508L8.13099 0.959486Z" fill="white"/>
</svg>
