<svg width="15" height="15" viewBox="0 0 15 15" fill="none" xmlns="http://www.w3.org/2000/svg">
<path d="M4.9646 6.11781C4.83495 6.10179 4.70085 6.06532 4.55968 6.02884C4.34123 5.97191 4.1139 5.91052 3.86436 5.90607C3.26673 5.90163 2.64777 6.22991 2.21177 6.79661C1.6319 7.55014 1.44098 8.58657 1.7136 9.5002C1.98622 10.4139 2.7135 11.1718 3.61396 11.4814C3.82531 11.5544 4.04109 11.6024 4.24801 11.6478C4.52063 11.7074 4.77992 11.7661 5.00459 11.8755C5.48235 12.1077 5.82067 12.5703 6.17767 13.0579C6.56395 13.5881 6.96444 14.137 7.58695 14.4448C7.91905 14.6085 8.30268 14.693 8.71651 14.693C9.09659 14.693 9.50328 14.6227 9.9171 14.483C11.3557 13.9982 12.5155 12.8684 13.0197 11.4654C13.581 9.90051 13.0037 8.27419 12.5198 7.18806C12.2196 6.51193 11.3805 5.64633 10.1851 5.23442C9.44359 4.97732 8.29804 4.81272 7.04335 5.47818C6.3649 5.83492 5.65992 6.20854 4.9646 6.11781ZM7.365 6.07866C8.40397 5.52708 9.35149 5.66676 9.9659 5.87849C10.9614 6.22278 11.6665 6.9425 11.9009 7.46562C12.5944 9.0207 12.7463 10.2191 12.3831 11.2351C11.9559 12.4263 10.9285 13.4236 9.70306 13.8364C9.30257 13.9707 8.53444 14.1504 7.8933 13.8337C7.42088 13.5989 7.08609 13.1416 6.73177 12.6541C6.34103 12.1185 5.93611 11.5652 5.30651 11.26C5.00902 11.1168 4.6991 11.0483 4.39984 10.9824C4.20182 10.9388 4.01799 10.8979 3.8404 10.8365C3.14508 10.5972 2.58298 10.0101 2.37163 9.30367C2.16029 8.59729 2.3077 7.79839 2.75792 7.21479C3.05984 6.82334 3.46478 6.58849 3.84218 6.58849H3.85816C4.02599 6.59115 4.20359 6.63831 4.39007 6.68902C4.54725 6.72994 4.7062 6.77353 4.87847 6.79577C5.7878 6.91498 6.62606 6.47098 7.365 6.07866ZM5.69909 8.19243C6.07917 7.96735 6.53117 7.92553 6.96274 7.90508L7.23092 7.89174C7.93067 7.85259 8.6544 7.81434 9.24494 8.02162C9.87011 8.24048 10.3994 8.72532 10.6631 9.32227C10.9269 9.91922 10.9224 10.6229 10.6498 11.2039C10.3816 11.7732 9.879 12.1584 9.33374 12.2056C9.29289 12.21 9.25204 12.21 9.2112 12.21C8.72011 12.21 8.20418 11.9574 7.68114 11.4565C7.56037 11.34 7.44492 11.2198 7.32859 11.0989C7.03111 10.7893 6.74871 10.4957 6.39439 10.2902C6.29405 10.2332 6.19015 10.1808 6.0827 10.1283C5.71683 9.94856 5.33944 9.76173 5.19647 9.37474C5.02153 8.90057 5.32436 8.41305 5.69909 8.19243ZM10.0459 2.08675C10.1072 2.11877 10.1684 2.1508 10.2235 2.18461C10.5485 2.38033 10.7377 2.77176 10.9375 3.18633C11.1239 3.57332 11.3175 3.97634 11.647 4.28859C11.9809 4.60529 12.4426 4.78057 12.9337 4.78057C12.9932 4.78057 13.0518 4.7779 13.1113 4.77345C13.7045 4.72363 14.2391 4.43449 14.5774 3.98344C15.2186 3.12672 15.1182 1.7718 14.3572 0.965781C13.2072 -0.247681 11.3903 -0.149818 10.0743 0.34838C9.59032 0.530756 9.32213 0.837673 9.31948 1.20954C9.3177 1.7033 9.75731 1.93372 10.0459 2.08675ZM10.3159 0.986269C10.7998 0.803894 11.3619 0.681133 11.9161 0.681133C12.6345 0.681133 13.344 0.88842 13.8617 1.43466C14.3981 1.99959 14.4753 2.97906 14.0322 3.57335C13.8138 3.86514 13.4479 4.0582 13.0545 4.09288C12.6931 4.12224 12.3521 4.01549 12.1176 3.79485C11.8788 3.56977 11.7198 3.23883 11.5537 2.89277C11.3193 2.40525 11.076 1.9017 10.576 1.60101C10.5103 1.56008 10.4375 1.52361 10.3647 1.48446C10.212 1.4044 10.0033 1.29319 10.0033 1.21579C10.0024 1.15974 10.1116 1.06366 10.3159 0.986269ZM1.42764 3.17923C1.33884 2.96927 1.34328 2.74152 1.43474 2.5209C1.56617 2.20864 1.87165 1.93819 2.26948 1.77806C2.99676 1.48627 4.04285 1.5414 4.81537 1.90794C4.98321 1.98801 5.11552 2.15348 5.18124 2.37501C5.27448 2.68014 5.23097 3.02623 5.06757 3.30201C4.7905 3.76907 4.04192 4.09646 3.27202 4.09646C3.24271 4.09646 3.21252 4.09646 3.18588 4.09379C2.37778 4.06977 1.63899 3.68542 1.42764 3.17923ZM0.283705 14.5124C0.0839003 14.2873 -0.0164413 14.0293 0.00219988 13.7856C0.035945 13.3025 0.516356 12.9813 0.774764 12.8087C0.942599 12.6975 1.13174 12.5694 1.35907 12.5312C1.58197 12.4947 1.87766 12.565 2.00022 12.8114C2.04817 12.9048 2.10678 13.0027 2.17072 13.1077C2.34832 13.3968 2.54813 13.7224 2.49396 14.0685C2.42114 14.524 2.01888 14.911 1.53489 14.9866C1.47362 14.9955 1.41235 14.9999 1.34841 14.9999C0.956786 15.0044 0.556321 14.822 0.283705 14.5124Z" fill="black"/>
</svg>
