<svg width="15" height="15" viewBox="0 0 15 15" fill="none" xmlns="http://www.w3.org/2000/svg">
<path d="M14.9831 7.09538H12.1225C12.0921 6.56772 12.0214 6.04316 11.911 5.52629C11.802 5.00996 11.6515 4.50328 11.4609 4.01121H14.1236C14.1354 4.00965 14.1474 4.01204 14.1577 4.01801C14.168 4.02398 14.1761 4.03319 14.1806 4.04421C14.5119 4.70164 14.7449 5.40418 14.8721 6.12932C14.9234 6.41715 14.9584 6.70762 14.9771 6.99937C14.9765 7.01136 14.9765 7.02338 14.9771 7.03538V7.09538H14.9831Z" fill="white"/>
<path d="M14.9833 7.95056C14.9833 8.00007 14.9743 8.04957 14.9698 8.10057C14.9193 8.824 14.7594 9.53561 14.4958 10.2112C14.4163 10.4182 14.3203 10.6192 14.2333 10.8232C14.2302 10.8324 14.2241 10.8403 14.2159 10.8455C14.2077 10.8507 14.1979 10.8529 14.1883 10.8517H11.5691H11.5361C11.7133 10.3747 11.8513 9.88407 11.9487 9.38464C12.0458 8.88586 12.1045 8.38034 12.1242 7.87256H14.9833V7.95056Z" fill="white"/>
<path d="M8.38732 0L8.58233 0.0300017C9.05039 0.0986054 9.51094 0.211108 9.95791 0.366021C10.6155 0.593542 11.2376 0.912706 11.806 1.31407C12.5363 1.81992 13.1639 2.45978 13.6556 3.19968L13.6796 3.23868H13.6451H11.137C11.126 3.23946 11.1151 3.23646 11.1061 3.23018C11.0971 3.2239 11.0905 3.21473 11.0875 3.20418C10.8146 2.66319 10.488 2.15107 10.1124 1.67559C9.70233 1.16478 9.22613 0.710774 8.69634 0.325518C8.58983 0.246014 8.47883 0.17551 8.37082 0.0945053L8.34082 0.0735041L8.37532 0.0480027L8.35732 0H8.38732Z" fill="white"/>
<path d="M7.79321 4.01281H10.5054C10.519 4.01081 10.5329 4.01382 10.5445 4.02126C10.556 4.02871 10.5645 4.04009 10.5684 4.05331C10.8398 4.67779 11.0357 5.33247 11.1519 6.00342C11.2122 6.35087 11.2528 6.70145 11.2734 7.05348C11.2734 7.05348 11.2734 7.06398 11.2734 7.07148H7.79321V4.01281Z" fill="white"/>
<path d="M7.77075 10.8503V7.88916H11.2554C11.2554 7.95366 11.2554 8.01667 11.2464 8.07967C11.2109 8.63682 11.1225 9.18933 10.9824 9.72976C10.8859 10.1003 10.7651 10.4641 10.6209 10.8188C10.6184 10.8289 10.6123 10.8377 10.6037 10.8435C10.5951 10.8493 10.5847 10.8517 10.5744 10.8503H7.77075Z" fill="white"/>
<path d="M3.59595 7.09369C3.60645 6.96168 3.61395 6.83267 3.62745 6.70367C3.66033 6.38071 3.7104 6.05974 3.77746 5.74211C3.89695 5.16514 4.07591 4.6021 4.31149 4.06202C4.31454 4.0528 4.32069 4.04492 4.32889 4.03972C4.3371 4.03452 4.34685 4.03233 4.35649 4.03352H7.00414V7.09369H3.59595Z" fill="white"/>
<path d="M7.0041 10.8518H4.28595C4.27237 10.8534 4.25868 10.85 4.24739 10.8423C4.2361 10.8345 4.22796 10.823 4.22445 10.8098C3.99287 10.2475 3.82384 9.66148 3.72042 9.06223C3.65409 8.68032 3.613 8.29447 3.59741 7.90716C3.59741 7.90716 3.59741 7.89666 3.59741 7.88916H7.0026V10.8518H7.0041Z" fill="white"/>
<path d="M3.39803 4.0127C3.36203 4.1117 3.32603 4.20471 3.29303 4.29771C2.97813 5.18073 2.79024 6.104 2.735 7.03986C2.73607 7.04504 2.73575 7.05041 2.73409 7.05542C2.73242 7.06044 2.72945 7.06492 2.7255 7.06842C2.72154 7.07192 2.71672 7.07432 2.71154 7.07536C2.70636 7.07641 2.701 7.07606 2.69599 7.07437H0.0273438C0.0273438 6.99486 0.0378443 6.92436 0.0438447 6.84185C0.0939065 6.28618 0.203542 5.7375 0.370863 5.20526C0.495818 4.80925 0.650259 4.42314 0.832889 4.0502C0.836227 4.03993 0.842929 4.03109 0.851911 4.0251C0.860893 4.01911 0.871631 4.01633 0.882392 4.0172H3.39803V4.0127Z" fill="white"/>
<path d="M3.31849 10.8518H0.835854C0.822076 10.8536 0.808115 10.8505 0.796352 10.8431C0.784589 10.8357 0.775753 10.8245 0.77135 10.8113C0.464659 10.1672 0.24908 9.48365 0.130814 8.78018C0.081787 8.48961 0.0477401 8.1967 0.0288086 7.90263C0.0288086 7.89213 0.0288086 7.88313 0.0288086 7.86963H2.72896C2.76835 8.88839 2.96728 9.89467 3.31849 10.8518Z" fill="white"/>
<path d="M8.34082 14.9631L8.45933 14.8806C8.99666 14.5071 9.48588 14.0688 9.91591 13.5756C10.4079 13.0067 10.8239 12.3764 11.1535 11.7004C11.1601 11.6796 11.1741 11.662 11.193 11.6509C11.2118 11.6398 11.2341 11.6361 11.2555 11.6404H13.7681C13.7291 11.7004 13.6946 11.7545 13.6586 11.8085C13.4203 12.1553 13.1544 12.4824 12.8636 12.7865C12.4604 13.208 12.007 13.5783 11.5135 13.8891C11.0149 14.2085 10.4795 14.4664 9.91891 14.6571C9.463 14.8135 8.99266 14.924 8.51483 14.9871L8.43683 14.9991C8.41912 15.001 8.40122 14.9988 8.38455 14.9925C8.36788 14.9863 8.3529 14.9762 8.34082 14.9631Z" fill="white"/>
<path d="M6.50916 14.9707C6.48373 14.9735 6.45808 14.9735 6.43265 14.9707C5.04039 14.7764 3.73283 14.1877 2.66444 13.2741C2.1151 12.808 1.64143 12.2594 1.26036 11.648L1.24536 11.6195H3.60499C3.61932 11.618 3.63375 11.6213 3.64599 11.6289C3.65822 11.6365 3.66755 11.648 3.6725 11.6615C3.93806 12.2031 4.25878 12.7158 4.62955 13.1916C4.95387 13.603 5.31378 13.9849 5.70511 14.3332C5.95234 14.5542 6.21392 14.7587 6.48816 14.9452L6.50316 14.9557V14.9707H6.50916Z" fill="white"/>
<path d="M6.46724 0.0271022L6.50324 0.0676044L6.42224 0.123108C5.89981 0.493686 5.42121 0.922464 4.99566 1.40118C4.50836 1.93635 4.09698 2.536 3.77309 3.18328C3.76847 3.19589 3.75975 3.2066 3.74833 3.21367C3.7369 3.22074 3.72344 3.22377 3.71008 3.22228H1.32495C2.59402 1.42518 4.29662 0.34662 6.46274 0.0166016L6.46724 0.0271022Z" fill="white"/>
<path d="M10.2399 11.645C9.6327 12.7164 8.78865 13.6349 7.77222 14.3302V11.645H10.2399Z" fill="white"/>
<path d="M4.6355 11.6436H7.00413V14.2762C6.01839 13.5973 5.20684 12.6953 4.6355 11.6436Z" fill="white"/>
<path d="M10.1604 3.21751H7.79175V0.713867C8.76314 1.35538 9.57365 2.21209 10.1604 3.21751Z" fill="white"/>
<path d="M7.00435 0.790527V3.24016H4.73022C5.28594 2.25677 6.06491 1.41769 7.00435 0.790527Z" fill="white"/>
</svg>
