<svg width="37" height="35" viewBox="0 0 37 35" fill="none" xmlns="http://www.w3.org/2000/svg">
<path d="M18.5 23.5C18.346 23.5 18.2 23.429 18.105 23.307C17.958 23.118 14.5 18.624 14.5 14.5C14.5 12.294 16.294 10.5 18.5 10.5C20.706 10.5 22.5 12.294 22.5 14.5C22.5 18.624 19.042 23.118 18.895 23.307C18.8 23.429 18.654 23.5 18.5 23.5ZM18.5 11.5C16.846 11.5 15.5 12.846 15.5 14.5C15.5 17.491 17.605 20.852 18.5 22.146C19.395 20.852 21.5 17.491 21.5 14.5C21.5 12.846 20.154 11.5 18.5 11.5Z" fill="black"/>
<path d="M18.5 16C17.673 16 17 15.327 17 14.5C17 13.673 17.673 13 18.5 13C19.327 13 20 13.673 20 14.5C20 15.327 19.327 16 18.5 16ZM18.5 14C18.224 14 18 14.224 18 14.5C18 14.776 18.224 15 18.5 15C18.775 15 19 14.776 19 14.5C19 14.224 18.775 14 18.5 14Z" fill="black"/>
<path d="M23 24.5H14C13.724 24.5 13.5 24.276 13.5 24C13.5 23.724 13.724 23.5 14 23.5H23C23.276 23.5 23.5 23.724 23.5 24C23.5 24.276 23.276 24.5 23 24.5Z" fill="black"/>
</svg>
