<svg width="37" height="35" viewBox="0 0 37 35" fill="none" xmlns="http://www.w3.org/2000/svg">
<path d="M20.5 10C18.7589 10 17.3333 11.3732 17.3333 13C17.3333 13.3969 17.4105 13.7835 17.5365 14.1615L16.6354 14.0156C16.5867 14.0065 16.5459 13.9996 16.5 14C16.4463 14.0005 16.3878 14.01 16.3333 14.0208L12.4167 14.6719C12.1855 14.711 11.9992 14.9322 12 15.1667V24.5C12.0018 24.7623 12.2446 25 12.5 25C12.5259 25 16.5 24.3333 16.5 24.3333L20.3698 24.9791C20.4145 24.9863 20.4559 25 20.5 25C20.5843 24.9999 20.6694 24.978 20.744 24.9645L24.5833 24.3229C24.8128 24.2841 24.9984 24.0661 25 23.8333V14.5C25.002 14.235 24.762 14.0016 24.5 14C24.4813 13.9999 23.4635 14.1667 23.4635 14.1667C23.5904 13.7872 23.6667 13.3986 23.6667 13C23.6667 11.3732 22.2411 10 20.5 10ZM20.5 11C21.712 11 22.6667 11.9706 22.6667 13C22.6667 13.6667 22.31 14.4681 21.7917 15.2656C21.3962 15.874 20.9317 16.4615 20.5 17.0156C20.0683 16.4615 19.6038 15.874 19.2083 15.2656C18.69 14.4681 18.3333 13.6667 18.3333 13C18.3333 11.9706 19.288 11 20.5 11ZM20.5 11.6615C19.6775 11.6615 19 12.3442 19 13.1667C19 13.9892 19.6775 14.6667 20.5 14.6667C21.3225 14.6667 22 13.9892 22 13.1667C22 12.3442 21.3225 11.6615 20.5 11.6615ZM20.5 12.6667C20.7821 12.6667 21 12.8846 21 13.1667C21 13.4487 20.7821 13.6667 20.5 13.6667C20.2179 13.6667 20 13.4487 20 13.1667C20 12.8846 20.2179 12.6667 20.5 12.6667ZM16 15.0885V23.4062L13 23.9062V15.5885L16 15.0885ZM17 15.0885L18.0417 15.2604C18.1477 15.4468 18.2579 15.6323 18.375 15.8125C18.9044 16.627 19.5236 17.3751 20 18V23.9062L17 23.4062V15.0885ZM24 15.0885V23.4062L21 23.9062V18C21.4764 17.3751 22.0956 16.627 22.625 15.8125C22.7421 15.6323 22.8523 15.4468 22.9583 15.2604L24 15.0885Z" fill="black"/>
</svg>
