<svg width="13" height="19" viewBox="0 0 13 19" fill="none" xmlns="http://www.w3.org/2000/svg">
<path fill-rule="evenodd" clip-rule="evenodd" d="M3.45049 4.23667C3.62526 4.07035 3.90908 4.07035 4.08384 4.23667C4.25861 4.40298 4.25861 4.67306 4.08384 4.83937L2.93661 5.93108L4.08384 7.02279C4.25861 7.18911 4.25861 7.45919 4.08384 7.62549C3.90907 7.79181 3.62525 7.79181 3.45049 7.62549L2.30326 6.53378L1.15603 7.62549C0.981254 7.79181 0.697441 7.79181 0.522679 7.62549C0.347906 7.45918 0.347906 7.1891 0.522679 7.02279L1.66991 5.93108L0.522679 4.83937C0.347906 4.67305 0.347906 4.40297 0.522679 4.23667C0.697452 4.07035 0.981266 4.07035 1.15603 4.23667L2.30326 5.32838L3.45049 4.23667ZM10.0352 5.28999C10.21 5.11941 10.4983 5.11657 10.6776 5.28999L12.137 6.67879C12.3118 6.84511 12.3118 7.11519 12.137 7.28149C11.9622 7.44781 11.6784 7.44781 11.5036 7.28149L10.8046 6.61624V8.09744C10.8046 9.71936 9.42279 11.0357 7.71689 11.0357H4.94293C3.73294 11.0357 2.75152 11.9696 2.75152 13.121V14.1573C3.82705 14.3592 4.60682 15.2604 4.60682 16.3081C4.60682 17.5192 3.57611 18.5 2.30341 18.5C1.03071 18.5 0 17.5192 0 16.3081C0 15.2618 0.779774 14.3592 1.8553 14.1573V13.121C1.8553 11.4991 3.23707 10.1828 4.94296 10.1828H7.71693C8.92692 10.1828 9.90834 9.24887 9.90834 8.09744V6.61624L9.20925 7.28149C9.03448 7.44781 8.75066 7.44781 8.5759 7.28149C8.40113 7.11518 8.40113 6.8451 8.5759 6.67879L10.0352 5.28999ZM12.2356 0.624736C12.4103 0.458421 12.6942 0.458421 12.8689 0.624736C13.0437 0.791051 13.0437 1.06113 12.8689 1.22744L9.94111 4.01356C9.76633 4.17987 9.48252 4.17987 9.30776 4.01356L7.84385 2.6205C7.66908 2.45418 7.66908 2.1841 7.84385 2.0178C8.01863 1.85148 8.30244 1.85148 8.4772 2.0178L9.62443 3.10951L12.2356 0.624736ZM2.30322 14.9691C3.07997 14.9691 3.71038 15.569 3.71038 16.3082C3.71038 17.0474 3.08001 17.6472 2.30322 17.6472C1.52643 17.6472 0.896065 17.0474 0.896065 16.3082C0.896065 15.569 1.52643 14.9691 2.30322 14.9691Z" fill="white"/>
</svg>
