<svg width="14" height="14" viewBox="0 0 14 14" fill="none" xmlns="http://www.w3.org/2000/svg">
<g clip-path="url(#clip0_338_1905)">
<path d="M13.4001 0.600098H0.600098V13.4001H13.4001V0.600098ZM3.65599 11.867C3.65599 10.0253 5.1543 8.52498 7.0001 8.52498C8.8459 8.52498 10.3442 10.0233 10.3442 11.867C10.3442 11.9692 10.3381 12.0714 10.3279 12.1716H3.6703C3.66212 12.0714 3.65395 11.9692 3.65395 11.867H3.65599ZM5.42207 5.6694C5.42207 4.80067 6.12932 4.09342 6.99805 4.09342C7.86679 4.09342 8.57404 4.80067 8.57404 5.6694C8.57404 6.53814 7.86679 7.24539 6.99805 7.24539C6.12932 7.24539 5.42207 6.53814 5.42207 5.6694ZM12.1737 12.1737H11.6054C11.6115 12.0735 11.6156 11.9713 11.6156 11.867C11.6156 10.0355 10.5445 8.45344 8.99512 7.70735C9.52453 7.18815 9.85363 6.46659 9.85363 5.6694C9.85363 4.09547 8.57199 2.81588 6.99805 2.81588C5.42412 2.81588 4.14248 4.09751 4.14248 5.6694C4.14248 6.46659 4.47158 7.18815 5.00099 7.70735C3.45158 8.45344 2.38049 10.0376 2.38049 11.867C2.38049 11.9692 2.38458 12.0714 2.39071 12.1737H1.82245V1.82654H12.1696V12.1737H12.1737Z" fill="#B2B2B2"/>
</g>
<defs>
<clipPath id="clip0_338_1905">
<rect width="12.8" height="12.8" fill="white" transform="translate(0.600098 0.600098)"/>
</clipPath>
</defs>
</svg>
