<svg width="37" height="35" viewBox="0 0 37 35" fill="none" xmlns="http://www.w3.org/2000/svg">
<path d="M26.494 16.1845V16.1786C26.8304 15.8506 26.999 15.4478 27 14.9702C26.9995 14.4932 26.8308 14.0865 26.494 13.75C26.161 13.4167 25.7582 13.25 25.2857 13.25C24.8087 13.2505 24.402 13.4172 24.0655 13.75V13.756C23.7369 14.0897 23.5723 14.4945 23.5714 14.9702C23.5722 15.2597 23.6337 15.5216 23.756 15.756L21.3452 18.1667C21.0772 18.0233 20.7816 17.9519 20.4583 17.9524C20.1366 17.9519 19.843 18.0233 19.5774 18.1667L17.756 16.3452C17.8151 16.1673 17.8449 15.9768 17.8452 15.7738C17.8454 15.3045 17.6807 14.8997 17.3512 14.5595C17.3495 14.5585 17.3476 14.5565 17.3452 14.5536C17.0062 14.2198 16.6015 14.0531 16.131 14.0536C15.6585 14.0536 15.2537 14.2202 14.9167 14.5536V14.5595C14.5829 14.8985 14.4162 15.3033 14.4167 15.7738C14.4169 16.0047 14.4566 16.219 14.5357 16.4167L12.7798 18.1607C12.5157 18.0216 12.222 17.9521 11.8988 17.9524C11.3746 17.9525 10.9262 18.137 10.5536 18.506C10.1851 18.8781 10.0006 19.3285 10 19.8571C10.0001 20.3814 10.1847 20.8278 10.5536 21.1964L10.5595 21.2024C10.9293 21.5672 11.3758 21.7497 11.8988 21.75C12.4263 21.7493 12.8747 21.5667 13.244 21.2024V21.1964C13.6169 20.8278 13.8034 20.3814 13.8036 19.8571C13.8032 19.5324 13.7318 19.2367 13.5893 18.9702L15.2917 17.2738C15.5416 17.4165 15.8214 17.4879 16.131 17.4881C16.4646 17.4882 16.7642 17.4049 17.0298 17.2381L18.7619 18.9702C18.6186 19.2371 18.5472 19.5327 18.5476 19.8571C18.5465 20.3775 18.737 20.8259 19.119 21.2024C19.4889 21.5672 19.9353 21.7497 20.4583 21.75C20.9877 21.7487 21.4341 21.5642 21.7976 21.1964C22.1705 20.8278 22.357 20.3814 22.3571 19.8571C22.3568 19.5355 22.2873 19.2419 22.1488 18.9762L24.5893 16.5417C24.801 16.6366 25.0331 16.6842 25.2857 16.6845C25.7568 16.6845 26.1596 16.5179 26.494 16.1845ZM26.0476 14.9702C26.0486 15.1817 25.9752 15.3603 25.8274 15.506H25.8214C25.6743 15.6567 25.4958 15.7321 25.2857 15.7321C25.0722 15.7327 24.8897 15.6573 24.7381 15.506C24.594 15.3615 24.5225 15.183 24.5238 14.9702C24.523 14.757 24.5944 14.5744 24.7381 14.4226H24.744C24.8931 14.2753 25.0737 14.2019 25.2857 14.2024C25.4958 14.2024 25.6743 14.2758 25.8214 14.4226C25.9727 14.5742 26.0481 14.7568 26.0476 14.9702ZM21.125 19.1786L21.131 19.1845C21.3141 19.3694 21.4054 19.5936 21.4048 19.8571C21.4049 20.1186 21.3116 20.3409 21.125 20.5238C20.9449 20.7076 20.7227 20.7989 20.4583 20.7976C20.1956 20.7979 19.9714 20.7066 19.7857 20.5238C19.5964 20.3368 19.5011 20.1146 19.5 19.8571C19.5007 19.5962 19.5959 19.372 19.7857 19.1845C19.9743 18.9989 20.1985 18.9056 20.4583 18.9048C20.7168 18.9056 20.939 18.9969 21.125 19.1786ZM15.5893 15.2262H15.5952C15.7437 15.0794 15.9223 15.006 16.131 15.006C16.3388 15.0064 16.5174 15.0778 16.6667 15.2202C16.6716 15.2252 16.6756 15.2292 16.6786 15.2321C16.8213 15.3843 16.8927 15.5648 16.8929 15.7738C16.8937 15.9842 16.8222 16.1628 16.6786 16.3095C16.6776 16.3145 16.6756 16.3184 16.6726 16.3214C16.5205 16.4641 16.34 16.5355 16.131 16.5357C15.9211 16.536 15.7405 16.4626 15.5893 16.3155C15.4419 16.1664 15.3685 15.9859 15.369 15.7738C15.3695 15.5632 15.4429 15.3806 15.5893 15.2262ZM12.5714 19.1786L12.5774 19.1845C12.7605 19.3694 12.8518 19.5936 12.8512 19.8571C12.8513 20.1172 12.7601 20.3394 12.5774 20.5238H12.5714C12.3878 20.7071 12.1636 20.7983 11.8988 20.7976C11.6375 20.7979 11.4133 20.7066 11.2262 20.5238C11.0435 20.3395 10.9522 20.1172 10.9524 19.8571C10.9518 19.5922 11.043 19.366 11.2262 19.1786C11.4131 18.9959 11.6373 18.9046 11.8988 18.9048C12.1607 18.9051 12.385 18.9964 12.5714 19.1786Z" fill="black"/>
</svg>
