<svg width="37" height="35" viewBox="0 0 37 35" fill="none" xmlns="http://www.w3.org/2000/svg">
<path d="M23.6071 12.8572H21.0946L20.719 12.181C20.5983 11.9638 20.4218 11.7828 20.2077 11.6568C19.9937 11.5308 19.7498 11.4644 19.5013 11.4644H17.4987C17.2503 11.4644 17.0064 11.5308 16.7924 11.6567C16.5783 11.7827 16.4019 11.9636 16.2813 12.1807L15.9054 12.8572H13.3929C13.0236 12.8576 12.6695 13.0045 12.4084 13.2656C12.1473 13.5267 12.0004 13.8808 12 14.2501V22.1429C12.0004 22.5122 12.1473 22.8663 12.4084 23.1274C12.6695 23.3885 13.0236 23.5354 13.3929 23.5358H23.6071C23.9764 23.5354 24.3305 23.3885 24.5916 23.1274C24.8527 22.8663 24.9996 22.5122 25 22.1429V14.2501C24.9996 13.8808 24.8527 13.5267 24.5916 13.2656C24.3305 13.0045 23.9764 12.8576 23.6071 12.8572ZM13.3929 13.7858H16.1786C16.2614 13.7858 16.3426 13.7637 16.414 13.7217C16.4853 13.6797 16.5442 13.6194 16.5844 13.5471L17.0931 12.6316C17.1332 12.5593 17.192 12.499 17.2633 12.457C17.3347 12.415 17.4159 12.3929 17.4987 12.3929H19.5013C19.5841 12.3929 19.6654 12.4151 19.7368 12.4571C19.8081 12.4991 19.867 12.5595 19.9071 12.6319L20.4156 13.5471C20.4558 13.6194 20.5147 13.6797 20.586 13.7217C20.6574 13.7637 20.7386 13.7858 20.8214 13.7858H23.6071C23.7302 13.7859 23.8482 13.8349 23.9353 13.9219C24.0223 14.009 24.0713 14.127 24.0714 14.2501V16.1072H21.2791C20.9562 15.6749 20.5368 15.3239 20.0543 15.0821C19.5719 14.8403 19.0397 14.7144 18.5 14.7144C17.9603 14.7144 17.4281 14.8403 16.9457 15.0821C16.4632 15.3239 16.0438 15.6749 15.7209 16.1072H12.9286V14.2501C12.9287 14.127 12.9777 14.009 13.0647 13.9219C13.1518 13.8349 13.2698 13.7859 13.3929 13.7858ZM18.5 15.6429C19.005 15.6429 19.4988 15.7927 19.9187 16.0733C20.3386 16.3539 20.6659 16.7527 20.8592 17.2193C21.0525 17.6859 21.103 18.1993 21.0045 18.6947C20.906 19.19 20.6628 19.645 20.3056 20.0021C19.9485 20.3593 19.4935 20.6025 18.9982 20.701C18.5028 20.7995 17.9894 20.749 17.5228 20.5557C17.0562 20.3624 16.6574 20.0351 16.3768 19.6152C16.0962 19.1953 15.9464 18.7015 15.9464 18.1965C15.9472 17.5195 16.2165 16.8704 16.6952 16.3917C17.1739 15.913 17.823 15.6437 18.5 15.6429ZM23.6071 22.6072H13.3929C13.2698 22.6071 13.1518 22.5581 13.0647 22.471C12.9777 22.384 12.9287 22.266 12.9286 22.1429V17.0358H15.221C15.0332 17.5613 14.9744 18.1243 15.0497 18.6773C15.1249 19.2302 15.332 19.757 15.6534 20.2133C15.9748 20.6695 16.4012 21.0418 16.8966 21.2987C17.392 21.5557 17.9419 21.6898 18.5 21.6898C19.0581 21.6898 19.608 21.5557 20.1034 21.2987C20.5988 21.0418 21.0251 20.6695 21.3466 20.2133C21.668 19.757 21.8751 19.2302 21.9503 18.6773C22.0256 18.1243 21.9668 17.5613 21.779 17.0358H24.0714V22.1429C24.0713 22.266 24.0223 22.384 23.9353 22.471C23.8482 22.5581 23.7302 22.6071 23.6071 22.6072Z" fill="black"/>
<path d="M13.8571 12.3929H14.7857C14.9088 12.3929 15.0269 12.344 15.114 12.2569C15.201 12.1699 15.25 12.0518 15.25 11.9286C15.25 11.8055 15.201 11.6874 15.114 11.6003C15.0269 11.5133 14.9088 11.4644 14.7857 11.4644H13.8571C13.734 11.4644 13.6159 11.5133 13.5288 11.6003C13.4417 11.6874 13.3928 11.8055 13.3928 11.9286C13.3928 12.0518 13.4417 12.1699 13.5288 12.2569C13.6159 12.344 13.734 12.3929 13.8571 12.3929Z" fill="black"/>
</svg>
