<svg width="19" height="18" viewBox="0 0 19 18" fill="none" xmlns="http://www.w3.org/2000/svg">
<path d="M15.3519 3.63769V5.15461H11.1246V3.63769H15.3519ZM2.01468 8.94154C2.01793 6.6982 1.99517 1.23603 2.00817 0.784742H0.637812C0.47444 0.786366 0.318375 0.852917 0.203788 0.96979C0.0892015 1.08666 0.0257865 1.24411 0.0274116 1.40726V13.7137C0.0249731 13.8769 0.0883713 14.0343 0.202975 14.1496C0.318392 14.2656 0.474451 14.3306 0.63781 14.3298H4.57979V11.8007H3.55975C2.70876 11.8015 2.01706 11.1141 2.01462 10.2643L2.01468 8.94154ZM15.5144 10.7571C15.1592 10.7523 14.8731 10.4633 14.8731 10.1087C14.8731 9.75398 15.1592 9.46503 15.5144 9.46017H16.0012C16.1735 9.46017 16.3394 9.52753 16.4621 9.64928C16.584 9.77102 16.6523 9.93659 16.6523 10.1086C16.6523 10.2807 16.584 10.4463 16.4621 10.568C16.3393 10.6898 16.1735 10.7579 16.0012 10.7571L15.5144 10.7571ZM15.5144 8.6048C15.1592 8.59993 14.8731 8.31099 14.8731 7.95632C14.8731 7.60165 15.1592 7.3127 15.5144 7.30783H16.0012C16.3564 7.31352 16.6409 7.60165 16.6409 7.95632C16.6409 8.31018 16.3564 8.59913 16.0012 8.6048H15.5144ZM13.4816 12.9039H12.9947V12.903C12.6396 12.899 12.3543 12.61 12.3543 12.2546C12.3543 11.8999 12.6396 11.6109 12.9947 11.6069H13.4816C13.8368 11.6109 14.1229 11.8999 14.1229 12.2546C14.1229 12.61 13.8376 12.899 13.4816 12.903V12.9039ZM13.4816 10.758H12.9947V10.7572C12.6396 10.7523 12.3535 10.4633 12.3535 10.1087C12.3535 9.754 12.6396 9.46505 12.9947 9.46019H13.4816C13.8368 9.46506 14.1229 9.754 14.1229 10.1087C14.1229 10.4633 13.8368 10.7523 13.4816 10.7572V10.758ZM13.4816 8.60563H12.9947V8.60482C12.6396 8.59995 12.3543 8.31101 12.3543 7.95634C12.3543 7.60167 12.6396 7.31272 12.9947 7.30785H13.4816C13.8368 7.31272 14.1229 7.60167 14.1229 7.95634C14.1229 8.31101 13.8376 8.59996 13.4816 8.60482V8.60563ZM16.0012 11.6078V11.607C16.3564 11.6118 16.6416 11.9008 16.6416 12.2546C16.6416 12.6093 16.3564 12.8982 16.0012 12.9031H15.5143C15.342 12.9039 15.1762 12.8357 15.0535 12.714C14.9316 12.5923 14.8633 12.4275 14.8633 12.2546C14.8633 12.0826 14.9316 11.9178 15.0535 11.7961C15.1762 11.6743 15.342 11.6062 15.5143 11.607L16.0012 11.6078ZM10.4757 9.46021H10.9626C11.3178 9.46508 11.6031 9.75402 11.6031 10.1087C11.6031 10.4634 11.3178 10.7523 10.9626 10.7572H10.4757C10.1206 10.7523 9.83526 10.4634 9.83526 10.1087C9.83526 9.75402 10.1206 9.46588 10.4757 9.46021ZM10.9626 11.6061V11.6069C11.3178 11.611 11.6039 11.8999 11.6039 12.2546C11.6039 12.6101 11.3178 12.899 10.9626 12.9031H10.4757C10.3026 12.9039 10.1368 12.8357 10.0149 12.714C9.89297 12.5922 9.82389 12.4275 9.82389 12.2546C9.82389 12.0825 9.89297 11.9178 10.0149 11.796C10.1368 11.6743 10.3026 11.6061 10.4757 11.6069L10.9626 11.6061ZM10.9626 7.30704V7.30786C11.3178 7.31273 11.6031 7.60167 11.6031 7.95634C11.6031 8.31101 11.3178 8.59996 10.9626 8.60483H10.4757C10.1206 8.59914 9.83607 8.3102 9.83607 7.95634C9.83607 7.60167 10.1206 7.31353 10.4757 7.30786L10.9626 7.30704ZM9.82632 2.98929C9.82713 2.63217 10.1173 2.34243 10.4757 2.34081H16.002H16.0012C16.3596 2.34243 16.6498 2.63217 16.6506 2.98929V5.80318C16.6498 6.16111 16.3596 6.45085 16.0012 6.45166H10.4758C10.1173 6.45085 9.82715 6.16111 9.82634 5.80318L9.82632 2.98929ZM5.87767 11.801V14.33C6.73517 14.3308 16.9406 14.3292 17.4161 14.33H17.4169C17.5802 14.3308 17.7363 14.2659 17.8517 14.1498C17.9663 14.0346 18.0297 13.8771 18.0273 13.714V1.40753C18.0289 1.24439 17.9655 1.08693 17.8509 0.970058C17.7363 0.853185 17.5802 0.786633 17.4169 0.785011H8.44925C8.45738 1.31257 8.45332 3.60139 8.44925 6.16678V10.1089C8.48502 10.5398 8.34115 10.9659 8.05017 11.2865C7.76 11.6079 7.34953 11.7938 6.91713 11.8011L5.87767 11.801ZM7.144 0.214257C7.13262 0.0965714 7.0359 0.00486192 6.91724 0H3.55953C3.42379 0.00162313 3.31406 0.111192 3.31325 0.246732C3.31081 1.86184 3.32138 9.41955 3.31325 10.1671C3.29212 10.245 3.30838 10.3286 3.35633 10.3944C3.40429 10.4601 3.47906 10.4999 3.55953 10.504C4.39589 10.5031 6.07994 10.504 6.9164 10.504H6.91722C7.04645 10.4999 7.14968 10.3944 7.15049 10.2645C7.13017 9.88144 7.17082 1.83095 7.144 0.214257ZM16.6505 16.0545V15.6268H15.3517V16.0545C15.3509 16.4125 15.0607 16.7022 14.7023 16.703H6.5272C6.16956 16.7022 5.8794 16.4125 5.87778 16.0545V15.6268H4.57974C4.47652 16.2071 4.63339 16.8037 5.00809 17.2598C5.38198 17.7159 5.9371 17.9862 6.5272 18H14.7023C15.7784 17.9992 16.6497 17.1283 16.6505 16.0545Z" fill="white"/>
</svg>
