<svg width="23" height="12" viewBox="0 0 23 12" fill="none" xmlns="http://www.w3.org/2000/svg">
<path d="M20.5005 0.815515L16.0763 3.07627V2.34681C16.0763 1.72439 15.7982 1.12748 15.3031 0.687364C14.808 0.247252 14.1365 0 13.4363 0H2.66734C1.96717 0 1.29568 0.247252 0.800582 0.687364C0.305486 1.12748 0.0273438 1.72439 0.0273438 2.34681L0.0273438 9.65319C0.0273438 10.2756 0.305486 10.8725 0.800582 11.3126C1.29568 11.7527 1.96717 12 2.66734 12H13.4363C14.1365 12 14.808 11.7527 15.3031 11.3126C15.7982 10.8725 16.0763 10.2756 16.0763 9.65319V8.92373L20.5005 11.1845C21.3387 11.6128 22.0273 11.2608 22.0273 10.4022V1.6017C22.0273 0.739244 21.3409 0.387223 20.5005 0.815515Z" fill="white"/>
</svg>
