<svg width="12" height="12" viewBox="0 0 12 12" fill="none" xmlns="http://www.w3.org/2000/svg">
<path d="M6 0C9.30635 0 12 2.69364 12 6C12 9.30631 9.30635 12 6 12C2.69365 12 0 9.30633 0 6C0 2.69364 2.69365 0 6 0ZM6 1.24138C3.36453 1.24138 1.24138 3.36455 1.24138 6C1.24138 8.63543 3.36455 10.7586 6 10.7586C8.63545 10.7586 10.7586 8.63543 10.7586 6C10.7586 3.36455 8.63547 1.24138 6 1.24138ZM6 2.27586C6.34279 2.27586 6.62069 2.55377 6.62069 2.89655V6C6.62069 6.22955 6.4956 6.42925 6.31035 6.53665L3.98276 7.88148C3.6859 8.05285 3.30718 7.95205 3.13577 7.65517C2.96437 7.35832 3.06521 6.97959 3.36207 6.80818L5.37931 5.64438V2.89655C5.37931 2.55377 5.65719 2.27586 6 2.27586Z" fill="white"/>
</svg>
